<svg xmlns="http://www.w3.org/2000/svg" width="24" height="24" viewBox="0 0 24 24">
  <g fill="none" fill-rule="evenodd">
    <rect width="24" height="24"/>
    <path fill="#FFF" d="M12.5,21 C11.0763558,21 9.71888634,20.7436557 8.4809025,20.2792006 C7.84171812,20.0393974 5.23438584,21.7441167 4.66624315,21.3999973 C4.09364444,21.0531789 5.56085249,18.6567525 5.0753788,18.2175144 C3.17525253,16.4983526 2,14.1233526 2,11.5 C2,6.25329488 6.70101013,2 12.5,2 C18.2989899,2 23,6.25329488 23,11.5 C23,16.7467051 18.2989899,21 12.5,21 Z M18.275,13 C19.1448485,13 19.85,12.3284271 19.85,11.5 C19.85,10.6715729 19.1448485,10 18.275,10 C17.4051515,10 16.7,10.6715729 16.7,11.5 C16.7,12.3284271 17.4051515,13 18.275,13 Z M13.025,13 C13.8948485,13 14.6,12.3284271 14.6,11.5 C14.6,10.6715729 13.8948485,10 13.025,10 C12.1551515,10 11.45,10.6715729 11.45,11.5 C11.45,12.3284271 12.1551515,13 13.025,13 Z M7.775,13 C8.64484848,13 9.35,12.3284271 9.35,11.5 C9.35,10.6715729 8.64484848,10 7.775,10 C6.90515152,10 6.2,10.6715729 6.2,11.5 C6.2,12.3284271 6.90515152,13 7.775,13 Z"/>
  </g>
</svg>
